# xmcd
#
# Track frame offsets: 
#        150
#        23362
#        44345
#        69785
#        91315
#        114762
#        118115
#        143382
#        163165
#        185202
#        204807
#        220075
#
# Disc length: 3194 seconds
#
# Revision: 7
# Processed by: cddbd v1.5.2PL0 Copyright (c) Steve Scherf et al.
# Submitted via: ExactAudioCopy v1.2
#
DISCID=950c780c
DTITLE=Beyond - 這裡那裡[24bit版][傻威整理]
DYEAR=1998
DGENRE=Blues
TTITLE0=忘記你[國]
TTITLE1=想你[國]
TTITLE2=緩慢[國]
TTITLE3=管我[國]
TTITLE4=候診室[國]
TTITLE5=我的知己在街頭[國]
TTITLE6=情人[國]
TTITLE7=熱情過後[國]
TTITLE8=十字路口[國]
TTITLE9=Amani[國]
TTITLE10=命運是我家[國]
TTITLE11=Paradise[英]
EXTD=
EXTT0=
EXTT1=
EXTT2=
EXTT3=
EXTT4=
EXTT5=
EXTT6=
EXTT7=
EXTT8=
EXTT9=
EXTT10=
EXTT11=
PLAYORDER=
